<mxfile host="Electron" agent="Mozilla/5.0 (Windows NT 10.0; Win64; x64) AppleWebKit/537.36 (KHTML, like Gecko) draw.io/28.0.6 Chrome/138.0.7204.100 Electron/37.2.3 Safari/537.36" version="28.0.6">
  <diagram name="第 1 页" id="U8d05swZbhsF-c-o2ugN">
    <mxGraphModel dx="1046" dy="879" grid="1" gridSize="10" guides="1" tooltips="1" connect="1" arrows="1" fold="1" page="1" pageScale="1" pageWidth="1169" pageHeight="827" math="0" shadow="0">
      <root>
        <mxCell id="0" />
        <mxCell id="1" parent="0" />
        <mxCell id="z_nIxX7ssq9EYPAlT1y5-4" style="edgeStyle=orthogonalEdgeStyle;rounded=0;orthogonalLoop=1;jettySize=auto;html=1;" edge="1" parent="1" source="z_nIxX7ssq9EYPAlT1y5-1" target="z_nIxX7ssq9EYPAlT1y5-2">
          <mxGeometry relative="1" as="geometry" />
        </mxCell>
        <mxCell id="z_nIxX7ssq9EYPAlT1y5-1" value="regWidget" style="rounded=1;whiteSpace=wrap;html=1;" vertex="1" parent="1">
          <mxGeometry x="880" y="150" width="120" height="60" as="geometry" />
        </mxCell>
        <mxCell id="z_nIxX7ssq9EYPAlT1y5-3" style="edgeStyle=orthogonalEdgeStyle;rounded=0;orthogonalLoop=1;jettySize=auto;html=1;entryX=0;entryY=0.5;entryDx=0;entryDy=0;" edge="1" parent="1" source="z_nIxX7ssq9EYPAlT1y5-2" target="z_nIxX7ssq9EYPAlT1y5-1">
          <mxGeometry relative="1" as="geometry" />
        </mxCell>
        <mxCell id="z_nIxX7ssq9EYPAlT1y5-12" style="edgeStyle=orthogonalEdgeStyle;rounded=0;orthogonalLoop=1;jettySize=auto;html=1;" edge="1" parent="1" source="z_nIxX7ssq9EYPAlT1y5-2" target="z_nIxX7ssq9EYPAlT1y5-11">
          <mxGeometry relative="1" as="geometry" />
        </mxCell>
        <mxCell id="z_nIxX7ssq9EYPAlT1y5-2" value="loginWidget" style="rounded=1;whiteSpace=wrap;html=1;" vertex="1" parent="1">
          <mxGeometry x="450" y="150" width="120" height="60" as="geometry" />
        </mxCell>
        <mxCell id="z_nIxX7ssq9EYPAlT1y5-6" style="edgeStyle=orthogonalEdgeStyle;rounded=0;orthogonalLoop=1;jettySize=auto;html=1;entryX=0;entryY=0.5;entryDx=0;entryDy=0;" edge="1" parent="1" source="z_nIxX7ssq9EYPAlT1y5-5" target="z_nIxX7ssq9EYPAlT1y5-2">
          <mxGeometry relative="1" as="geometry" />
        </mxCell>
        <mxCell id="z_nIxX7ssq9EYPAlT1y5-5" value="main" style="rounded=0;whiteSpace=wrap;html=1;" vertex="1" parent="1">
          <mxGeometry x="200" y="150" width="120" height="60" as="geometry" />
        </mxCell>
        <mxCell id="z_nIxX7ssq9EYPAlT1y5-18" style="edgeStyle=orthogonalEdgeStyle;rounded=0;orthogonalLoop=1;jettySize=auto;html=1;entryX=1;entryY=0.5;entryDx=0;entryDy=0;" edge="1" parent="1" source="z_nIxX7ssq9EYPAlT1y5-7" target="z_nIxX7ssq9EYPAlT1y5-11">
          <mxGeometry relative="1" as="geometry" />
        </mxCell>
        <mxCell id="z_nIxX7ssq9EYPAlT1y5-20" style="edgeStyle=orthogonalEdgeStyle;rounded=0;orthogonalLoop=1;jettySize=auto;html=1;" edge="1" parent="1" source="z_nIxX7ssq9EYPAlT1y5-7" target="z_nIxX7ssq9EYPAlT1y5-14">
          <mxGeometry relative="1" as="geometry" />
        </mxCell>
        <mxCell id="z_nIxX7ssq9EYPAlT1y5-7" value="gameWidget" style="rounded=1;whiteSpace=wrap;html=1;" vertex="1" parent="1">
          <mxGeometry x="860" y="370" width="120" height="60" as="geometry" />
        </mxCell>
        <mxCell id="z_nIxX7ssq9EYPAlT1y5-15" style="edgeStyle=orthogonalEdgeStyle;rounded=0;orthogonalLoop=1;jettySize=auto;html=1;entryX=0;entryY=0.5;entryDx=0;entryDy=0;" edge="1" parent="1" source="z_nIxX7ssq9EYPAlT1y5-11" target="z_nIxX7ssq9EYPAlT1y5-14">
          <mxGeometry relative="1" as="geometry" />
        </mxCell>
        <mxCell id="z_nIxX7ssq9EYPAlT1y5-32" style="edgeStyle=orthogonalEdgeStyle;rounded=0;orthogonalLoop=1;jettySize=auto;html=1;entryX=0;entryY=0.5;entryDx=0;entryDy=0;fontFamily=Helvetica;fontSize=12;fontColor=default;" edge="1" parent="1" source="z_nIxX7ssq9EYPAlT1y5-11" target="z_nIxX7ssq9EYPAlT1y5-7">
          <mxGeometry relative="1" as="geometry" />
        </mxCell>
        <mxCell id="z_nIxX7ssq9EYPAlT1y5-11" value="menuWidget" style="rounded=1;whiteSpace=wrap;html=1;" vertex="1" parent="1">
          <mxGeometry x="450" y="460" width="120" height="60" as="geometry" />
        </mxCell>
        <mxCell id="z_nIxX7ssq9EYPAlT1y5-19" style="edgeStyle=orthogonalEdgeStyle;rounded=0;orthogonalLoop=1;jettySize=auto;html=1;entryX=1;entryY=0.5;entryDx=0;entryDy=0;" edge="1" parent="1" source="z_nIxX7ssq9EYPAlT1y5-14" target="z_nIxX7ssq9EYPAlT1y5-11">
          <mxGeometry relative="1" as="geometry" />
        </mxCell>
        <mxCell id="z_nIxX7ssq9EYPAlT1y5-14" value="rankWidget" style="rounded=1;whiteSpace=wrap;html=1;" vertex="1" parent="1">
          <mxGeometry x="860" y="580" width="120" height="60" as="geometry" />
        </mxCell>
        <mxCell id="z_nIxX7ssq9EYPAlT1y5-17" style="edgeStyle=orthogonalEdgeStyle;rounded=0;orthogonalLoop=1;jettySize=auto;html=1;" edge="1" parent="1" source="z_nIxX7ssq9EYPAlT1y5-16" target="z_nIxX7ssq9EYPAlT1y5-2">
          <mxGeometry relative="1" as="geometry" />
        </mxCell>
        <mxCell id="z_nIxX7ssq9EYPAlT1y5-16" value="userData" style="shape=cylinder3;whiteSpace=wrap;html=1;boundedLbl=1;backgroundOutline=1;size=15;" vertex="1" parent="1">
          <mxGeometry x="710" y="60" width="60" height="80" as="geometry" />
        </mxCell>
        <mxCell id="z_nIxX7ssq9EYPAlT1y5-22" style="edgeStyle=orthogonalEdgeStyle;rounded=0;orthogonalLoop=1;jettySize=auto;html=1;entryX=1;entryY=0.5;entryDx=0;entryDy=0;exitX=0.5;exitY=1;exitDx=0;exitDy=0;exitPerimeter=0;" edge="1" parent="1" source="z_nIxX7ssq9EYPAlT1y5-21" target="z_nIxX7ssq9EYPAlT1y5-14">
          <mxGeometry relative="1" as="geometry" />
        </mxCell>
        <mxCell id="z_nIxX7ssq9EYPAlT1y5-21" value="rankData" style="shape=cylinder3;whiteSpace=wrap;html=1;boundedLbl=1;backgroundOutline=1;size=15;" vertex="1" parent="1">
          <mxGeometry x="1060" y="460" width="60" height="80" as="geometry" />
        </mxCell>
        <mxCell id="z_nIxX7ssq9EYPAlT1y5-23" style="edgeStyle=orthogonalEdgeStyle;rounded=0;orthogonalLoop=1;jettySize=auto;html=1;entryX=0.5;entryY=0;entryDx=0;entryDy=0;entryPerimeter=0;" edge="1" parent="1" source="z_nIxX7ssq9EYPAlT1y5-7" target="z_nIxX7ssq9EYPAlT1y5-21">
          <mxGeometry relative="1" as="geometry" />
        </mxCell>
        <mxCell id="z_nIxX7ssq9EYPAlT1y5-24" style="edgeStyle=orthogonalEdgeStyle;rounded=0;orthogonalLoop=1;jettySize=auto;html=1;entryX=1;entryY=0.5;entryDx=0;entryDy=0;entryPerimeter=0;exitX=0.5;exitY=0;exitDx=0;exitDy=0;" edge="1" parent="1" source="z_nIxX7ssq9EYPAlT1y5-1" target="z_nIxX7ssq9EYPAlT1y5-16">
          <mxGeometry relative="1" as="geometry" />
        </mxCell>
        <mxCell id="z_nIxX7ssq9EYPAlT1y5-26" style="edgeStyle=orthogonalEdgeStyle;rounded=0;orthogonalLoop=1;jettySize=auto;html=1;entryX=0.5;entryY=0;entryDx=0;entryDy=0;" edge="1" parent="1" source="z_nIxX7ssq9EYPAlT1y5-25" target="z_nIxX7ssq9EYPAlT1y5-2">
          <mxGeometry relative="1" as="geometry" />
        </mxCell>
        <mxCell id="z_nIxX7ssq9EYPAlT1y5-25" value="myCode" style="rounded=1;whiteSpace=wrap;html=1;" vertex="1" parent="1">
          <mxGeometry x="340" y="40" width="120" height="60" as="geometry" />
        </mxCell>
        <mxCell id="z_nIxX7ssq9EYPAlT1y5-27" value="signalReg2Log" style="text;html=1;align=center;verticalAlign=middle;whiteSpace=wrap;rounded=0;" vertex="1" parent="1">
          <mxGeometry x="700" y="150" width="60" height="30" as="geometry" />
        </mxCell>
        <mxCell id="z_nIxX7ssq9EYPAlT1y5-30" style="edgeStyle=orthogonalEdgeStyle;rounded=0;orthogonalLoop=1;jettySize=auto;html=1;exitX=0.5;exitY=1;exitDx=0;exitDy=0;fontFamily=Helvetica;fontSize=12;fontColor=default;" edge="1" parent="1" source="z_nIxX7ssq9EYPAlT1y5-27" target="z_nIxX7ssq9EYPAlT1y5-27">
          <mxGeometry relative="1" as="geometry" />
        </mxCell>
        <mxCell id="z_nIxX7ssq9EYPAlT1y5-31" value="fLog2Reg" style="text;html=1;align=center;verticalAlign=middle;whiteSpace=wrap;rounded=0;fontFamily=Helvetica;fontSize=12;fontColor=default;" vertex="1" parent="1">
          <mxGeometry x="700" y="180" width="60" height="30" as="geometry" />
        </mxCell>
      </root>
    </mxGraphModel>
  </diagram>
</mxfile>
